<?xml version="1.0" encoding="UTF-8"?><svg xmlns="http://www.w3.org/2000/svg" viewBox="0 0 534.26 504.37"><defs><style>.d{fill:#fff;}</style></defs><g id="a"/><g id="b"><g id="c"><path class="d" d="M338.85,368.58c-89.95,72.63-215.79,57.26-287.41-24.01C-18.1,265.68-17.14,146.27,54.37,67.68,126.06-11.12,245.11-22.67,331.56,41.24c85.41,63.15,111.55,184.36,49.62,280.19,.83,.55,1.92,1.11,2.81,1.9,37.35,33.52,74.67,67.05,112,100.59,9.37,8.42,18.9,16.67,28.05,25.32,9.17,8.68,12.29,19.56,8.89,31.69-3.4,12.12-11.65,19.82-23.99,22.59-10.52,2.36-19.99-.35-27.99-7.51-30.65-27.44-61.23-54.97-91.83-82.46-16.1-14.46-32.2-28.91-48.3-43.36-.6-.54-1.24-1.03-1.97-1.62ZM207.72,63.77c-78.84-.03-142.62,63.44-143.98,141.33-1.41,80.7,63.8,146.51,143.4,146.38,88.82-.15,144.42-74.88,144.39-143.74-.04-79.3-64.53-143.93-143.81-143.97Z"/></g></g></svg>